<?xml version="1.0" standalone="no"?><!DOCTYPE svg PUBLIC "-//W3C//DTD SVG 1.1//EN" "http://www.w3.org/Graphics/SVG/1.1/DTD/svg11.dtd"><svg t="1632379897560" class="icon" viewBox="0 0 2138 1024" version="1.1" xmlns="http://www.w3.org/2000/svg" p-id="6503" xmlns:xlink="http://www.w3.org/1999/xlink" width="417.578125" height="200"><defs><style type="text/css"></style></defs><path d="M513.817751 642.878107V605.91716c-4.847337 9.694675-11.512426 18.177515-19.389349 24.236686-7.876923 6.059172-16.359763 10.906509-26.054438 14.542012-9.694675 3.635503-19.389349 6.059172-30.295857 7.271006-10.300592 1.211834-20.601183 1.817751-30.901776 1.817751-26.660355 0-50.897041-4.847337-72.710059-13.936094s-39.990533-21.813018-54.532544-38.172781c-15.147929-16.359763-26.660355-35.749112-34.537278-58.168048-7.876923-22.418935-12.118343-46.655621-12.118343-72.710059s4.24142-50.291124 12.118343-72.710059c8.48284-22.418935 19.995266-41.808284 35.749112-58.168047s33.931361-29.084024 55.744379-38.778699c21.207101-9.088757 45.443787-13.936095 72.710059-13.936094 21.207101 0 40.59645 3.029586 59.379882 9.694674 18.783432 6.665089 33.325444 19.389349 44.837869 38.778699v-36.35503h95.734912v342.343195H513.817751z m-6.059171-171.474557c0-12.118343-2.423669-23.630769-6.665089-34.537278-4.24142-10.300592-10.300592-19.389349-18.177515-27.266272-7.876923-7.876923-16.96568-13.936095-27.266272-18.177515-10.300592-4.24142-21.813018-6.665089-34.537278-6.665089s-23.630769 2.423669-33.931361 6.665089c-10.300592 4.847337-19.389349 10.906509-26.660355 18.783432-7.876923 7.876923-13.330178 17.571598-18.177515 27.87219-4.24142 10.300592-6.665089 21.813018-6.665088 33.325443 0 12.118343 2.423669 23.630769 6.665088 34.537278 4.24142 10.300592 10.300592 19.389349 18.177515 27.266273 7.876923 7.876923 16.96568 13.936095 27.266272 18.783432 10.300592 4.847337 21.813018 6.665089 33.931361 6.665088 25.448521 0 46.655621-8.48284 62.409468-24.842603 15.753846-16.359763 23.630769-37.566864 23.630769-62.409468zM1047.630769 469.585799c0 25.448521-4.24142 49.685207-12.118343 72.104142-7.876923 22.418935-19.389349 42.414201-34.537278 58.773964-15.147929 16.359763-33.325444 29.689941-54.532544 39.384616-21.207101 9.694675-45.443787 14.542012-71.498225 14.542012-11.512426 0-21.813018-1.211834-30.295858-3.029586-9.088757-1.817751-16.96568-4.847337-24.842604-9.088758-7.876923-4.24142-15.147929-9.088757-22.418935-15.147929-7.271006-6.059172-14.542012-12.72426-21.813018-21.2071v36.960947h-96.946745V186.622485h102.4v141.178698c13.330178-13.936095 27.872189-24.236686 44.83787-29.68994 16.359763-6.059172 34.537278-9.088757 53.926627-9.088758 25.448521 0 48.473373 4.847337 69.680473 14.542012 20.601183 9.694675 38.778698 22.418935 53.32071 38.778698 14.542012 16.359763 26.054438 35.749112 33.931361 57.56213 6.665089 21.813018 10.906509 44.83787 10.906509 69.680474z m-101.794083 1.817751c0-12.118343-1.817751-23.024852-6.059171-33.931361-4.24142-10.300592-9.694675-19.995266-17.571598-27.872189-7.271006-7.876923-16.359763-14.542012-26.660355-18.783432-10.300592-4.847337-21.813018-6.665089-33.931361-6.665089-12.118343 0-23.630769 2.423669-34.537278 6.665089-10.300592 4.847337-19.389349 10.906509-27.266272 18.783432-7.271006 7.876923-13.330178 16.96568-17.571598 27.266272-4.24142 10.300592-6.059172 21.813018-6.059171 34.537278 0 12.118343 1.817751 23.630769 6.059171 34.537278 4.24142 10.300592 9.694675 19.995266 16.965681 27.266273 7.271006 7.876923 16.359763 13.936095 26.660355 18.783432 10.300592 4.847337 21.813018 6.665089 33.931361 6.665088 12.118343 0 23.630769-2.423669 34.537278-6.665088 10.300592-4.847337 19.389349-10.906509 27.266272-18.783432 7.271006-7.876923 13.330178-16.96568 17.571598-27.266273 4.24142-10.300592 6.665089-21.813018 6.665088-34.537278zM1422.087574 570.773964c-10.906509 16.96568-24.842604 32.113609-40.59645 44.231953-15.753846 12.72426-33.325444 21.813018-52.714793 29.084024-19.389349 6.665089-39.990533 10.300592-61.80355 10.300592-25.448521 0-49.685207-4.847337-71.498225-14.542012-22.418935-9.694675-41.808284-22.418935-58.168047-38.778699s-29.084024-35.749112-38.778698-58.168047c-9.694675-22.418935-14.542012-46.049704-14.542012-71.498225 0-25.448521 4.847337-49.07929 13.936094-71.498225 9.088757-21.813018 21.813018-41.202367 38.172782-57.56213 16.359763-16.359763 35.143195-29.084024 56.956213-38.778698 21.813018-9.088757 45.443787-13.936095 70.892307-13.936095 21.813018 0 43.020118 3.635503 62.409468 10.300592 19.995266 6.665089 37.566864 16.359763 53.926627 29.084024 16.359763 12.72426 29.689941 27.266272 41.202367 44.83787 10.906509 17.571598 18.783432 36.960947 23.630769 58.773964h-103.005917c-6.665089-15.147929-16.359763-26.660355-29.689941-35.143195-13.330178-8.48284-28.478107-12.72426-44.83787-12.724261-12.118343 0-23.630769 2.423669-33.325444 7.271006-10.300592 4.847337-18.783432 11.512426-25.44852 19.389349-7.271006 7.876923-12.72426 17.571598-16.359764 28.478107-3.635503 10.906509-6.059172 22.418935-6.059171 33.931361 0 12.118343 1.817751 23.024852 6.059171 33.931361 3.635503 10.300592 9.088757 19.995266 16.359764 27.266272 7.271006 7.876923 15.753846 13.936095 25.44852 18.177515 10.300592 4.24142 21.207101 6.665089 33.325444 6.665089 17.571598 0 32.113609-4.24142 43.626036-12.118344 12.118343-7.876923 22.418935-19.389349 31.507692-33.931361h103.005917c-4.24142 20.601183-12.72426 39.384615-23.630769 56.956213zM1754.130178 642.878107v-36.35503c-13.936095 16.96568-29.689941 29.689941-46.049705 36.960947-16.96568 7.271006-36.35503 10.906509-58.773964 10.906509-26.054438 0-49.685207-4.847337-70.892308-14.542012-21.207101-9.694675-39.384615-22.418935-54.532544-39.384616-15.147929-16.359763-26.660355-35.749112-34.537278-58.168047-7.876923-21.813018-12.118343-46.049704-12.118343-71.498225 0-24.842604 4.24142-47.867456 12.118343-70.28639 7.876923-21.813018 19.389349-41.202367 34.537278-57.562131s32.719527-29.689941 53.926627-39.384615c21.207101-9.694675 44.231953-14.542012 69.680473-14.542012 20.601183 0 38.778698 3.029586 55.138462 9.088758 16.359763 6.059172 31.507692 16.359763 46.049704 30.901775V186.622485h101.794083v456.255622h-96.340828z m-1.817752-172.686391c0-12.118343-2.423669-23.630769-6.665089-34.537278-4.24142-10.300592-10.300592-19.389349-18.177515-27.266272-7.876923-7.876923-16.96568-13.330178-27.266272-18.177515-10.300592-4.24142-21.813018-6.665089-33.931361-6.665089-12.118343 0-23.630769 2.423669-34.537278 6.665089-10.906509 4.24142-19.995266 10.300592-27.872189 18.177515-7.876923 7.876923-13.936095 16.359763-18.177515 27.266272s-6.665089 22.418935-6.665089 35.143195c0 12.118343 2.423669 24.236686 6.665089 34.537278 4.24142 10.906509 10.300592 19.995266 17.571598 28.478107s16.359763 13.936095 27.266272 18.783432c10.300592 4.24142 21.813018 6.665089 35.143195 6.665088 26.054438 0 47.261538-8.48284 63.015385-25.44852 15.753846-16.359763 23.630769-37.566864 23.630769-63.621302zM1020.970414 818.594083v49.07929h-29.689941V727.100592h48.473373c34.537278 0 52.108876 14.542012 52.108876 44.231952 0 14.542012-5.453254 26.054438-15.753846 34.537278-10.300592 8.48284-23.630769 12.72426-39.384616 12.724261h-15.753846z m0-68.468639v45.443787h12.724261c17.571598 0 26.054438-7.876923 26.054437-23.024852s-8.48284-22.418935-26.054437-22.418935h-12.724261zM1113.069822 867.067456V727.100592h48.473373c49.685207 0 74.527811 23.024852 74.527811 68.468639 0 21.813018-6.665089 38.778698-20.601184 52.108876-13.936095 13.330178-32.113609 19.389349-53.926627 19.389349h-48.473373z m29.689941-115.730178v91.493491h16.359764c13.936095 0 25.448521-4.24142 33.325443-12.72426s12.118343-19.995266 12.118344-34.537278c0-13.936095-4.24142-24.842604-12.724261-32.719527-8.48284-7.876923-19.389349-11.512426-32.719526-11.512426h-16.359764zM1339.68284 751.337278h-50.291124v35.749113h46.049704v24.236686h-46.049704v55.138461h-29.689941v-139.360946h79.981065v24.236686zM1356.042604 854.343195c0-4.24142 1.817751-8.48284 5.453254-10.906509 3.635503-3.029586 7.271006-4.24142 12.118343-4.24142s9.088757 1.211834 12.118343 4.24142c3.029586 3.029586 4.847337 6.665089 4.847338 10.906509 0 4.847337-1.817751 8.48284-4.847338 11.512426s-7.271006 4.24142-12.72426 4.24142c-4.847337 0-8.48284-1.211834-12.118343-4.24142s-4.847337-7.271006-4.847337-11.512426zM1516.004734 862.220118c-10.300592 4.847337-23.630769 7.271006-39.990533 7.271006-21.207101 0-37.566864-6.059172-50.291124-18.783432s-18.783432-29.689941-18.783432-50.291124c0-22.418935 6.665089-39.990533 20.601183-54.532544 13.936095-13.936095 31.507692-21.207101 53.32071-21.207101 13.936095 0 24.842604 1.817751 34.537279 5.453255v29.084023c-9.694675-5.453254-19.995266-8.48284-32.11361-8.48284-13.936095 0-24.842604 4.24142-32.719527 13.330177-8.48284 8.48284-12.118343 19.995266-12.118343 34.537279 0 13.936095 3.635503 24.842604 11.512426 33.325443s18.177515 12.72426 31.507693 12.724261c12.72426 0 23.630769-3.029586 33.931361-9.088758v26.660355zM1531.75858 799.204734c0-21.813018 6.665089-39.990533 19.389349-53.32071 12.72426-13.936095 29.689941-20.601183 50.897041-20.601184 19.995266 0 36.35503 6.665089 48.473373 19.995267 12.118343 13.330178 18.177515 30.295858 18.177515 51.502958 0 21.813018-6.059172 39.384615-18.783432 53.32071s-29.084024 20.601183-49.685207 20.601184c-19.995266 0-36.35503-6.665089-49.07929-19.995267-13.330178-13.936095-19.389349-30.901775-19.389349-51.502958z m31.507692-1.817752c0 13.330178 3.029586 24.842604 9.694675 33.325444 6.665089 8.48284 15.753846 12.72426 27.266272 12.72426s20.601183-4.24142 27.266272-12.72426c6.665089-8.48284 9.694675-19.389349 9.694675-33.325444 0-14.542012-3.029586-26.054438-9.694675-34.537278-6.059172-8.48284-15.147929-12.72426-26.660355-12.72426-11.512426 0-20.601183 4.24142-27.872189 12.72426-6.665089 9.694675-9.694675 20.601183-9.694675 34.537278zM1820.175148 867.067456v-84.828403c0-7.876923 0.605917-17.571598 1.211834-29.689941h-0.605917c-1.817751 9.088757-3.029586 15.147929-4.24142 18.177515l-34.537278 96.340829h-23.630769l-35.143196-95.734912c-0.605917-2.423669-2.423669-8.48284-4.24142-18.783432h-0.605917c0.605917 11.512426 1.211834 23.630769 1.211834 35.143196v79.375148h-26.660355V727.100592h43.626036l30.295858 84.828402c2.423669 7.271006 4.24142 13.330178 5.453254 19.995266h0.605917c1.817751-7.876923 3.635503-14.542012 6.059172-19.995266l30.295858-84.222485h42.414201v139.966864h-31.507692z" fill="#FFFFFF" p-id="6504"></path><path d="M441.107692 716.8l121.183432 12.118343-35.143195 31.507693 0.605917 0.605917c165.415385 141.178698 305.382249-19.389349 335.07219-74.527811-2.423669 43.626036-30.295858 102.4-72.71006 139.966864-92.099408 82.404734-233.278107 75.133728-316.288757-16.965681 0-0.605917-0.605917-0.605917-0.605917-0.605917l-33.325444 29.689941 1.211834-121.789349z" fill="#7E5BF7" p-id="6505"></path><path d="M1491.16213 329.013018l-120.577515-18.177515 36.960947-29.689941-0.605917-0.605917c-158.144379-149.055621-305.988166 4.24142-338.101775 58.168047 4.847337-43.626036 35.749112-100.582249 79.375148-136.331361 95.734911-78.163314 236.913609-63.621302 315.076923 32.719527 0 0.605917 0.605917 0.605917 0.605917 0.605917l35.143195-28.478106-7.876923 121.789349z" fill="#B8E066" p-id="6506"></path><path d="M843.436686 447.166864m-24.842603 0a24.842604 24.842604 0 1 0 49.685207 0 24.842604 24.842604 0 1 0-49.685207 0Z" fill="#FFFFFF" p-id="6507"></path><path d="M443.531361 447.166864m-24.842604 0a24.842604 24.842604 0 1 0 49.685207 0 24.842604 24.842604 0 1 0-49.685207 0Z" fill="#FFFFFF" p-id="6508"></path></svg>