<?xml version="1.0" standalone="no"?><!DOCTYPE svg PUBLIC "-//W3C//DTD SVG 1.1//EN" "http://www.w3.org/Graphics/SVG/1.1/DTD/svg11.dtd"><svg t="1632380019172" class="icon" viewBox="0 0 1024 1024" version="1.1" xmlns="http://www.w3.org/2000/svg" p-id="6649" xmlns:xlink="http://www.w3.org/1999/xlink" width="200" height="200"><defs><style type="text/css"></style></defs><path d="M883.2 0h-732.16C70.656 0 5.12 65.536 5.12 145.92v732.16C5.12 958.464 70.656 1024 151.04 1024h732.16c80.384 0 145.92-65.536 145.92-145.92v-732.16C1029.12 65.536 963.584 0 883.2 0z" fill="#00AA5F" p-id="6650"></path><path d="M930.304 739.84l-26.112-31.232-89.6 75.264 26.112 31.232c10.24 11.776 28.16 13.312 39.936 3.584l46.08-38.4c12.288-10.752 13.824-28.672 3.584-40.448z m-72.192-27.136l-121.856-145.92c-4.608 4.608-9.216 9.728-14.848 14.336-5.12 4.096-9.728 7.68-14.848 11.264l121.856 145.92 29.696-25.6z m-37.376 31.744l-122.368-146.432c-15.872 9.216-28.672 12.288-33.28 7.168l132.608 158.72 23.04-19.456z m66.56-55.808l-132.608-158.72c4.096 5.12-0.512 16.384-11.264 29.696l122.88 146.944 20.992-17.92z m-179.2-123.904c24.576-20.992 39.424-44.032 32.768-51.712-6.144-7.168-41.472-24.576-71.68-38.4-4.608 8.192-10.24 15.872-17.408 21.504-7.68 6.144-16.384 10.752-25.088 13.824 8.192 32.256 18.944 70.656 25.088 78.336 6.144 7.68 31.232-2.56 56.32-23.552z m-80.384-108.032c-12.8-4.608-14.336-2.56-11.776 9.728 1.024 4.096 4.096 16.896 7.68 33.28 0 0.512 0 1.024 0.512 1.536 2.048 2.56 11.776-2.56 21.504-10.752 9.728-8.192 16.384-16.896 14.336-19.456l0.512-0.512c-15.872-6.656-28.672-12.288-32.768-13.824z" fill="#FFFFFF" p-id="6651"></path><path d="M793.088 784.896c-4.608-1.024-8.704-3.584-11.776-7.168l-76.8-92.16H290.816c-10.752 0-10.752-16.896 0-16.896h399.36l-29.696-35.328H290.816c-10.752 0-10.752-16.896 0-16.896h355.84c-1.024-2.048-2.048-4.096-2.56-6.656-3.072-1.536-6.656-3.584-9.216-7.168-5.12-6.656-6.656-10.752-9.216-16.896l-1.536-4.608H290.816c-10.752 0-10.752-16.896 0-16.896h327.68c-3.072-10.752-6.656-23.552-9.728-35.328H290.816c-10.752 0-10.752-16.896 0-16.896h314.368v-1.024c-1.536-2.56-2.56-5.632-2.56-8.192-3.584-15.36-6.656-27.648-7.168-31.232-1.024-4.096-1.536-7.68-2.048-12.8 0-4.096 0.512-10.24 6.144-17.408 5.632-7.168 14.848-9.216 19.456-8.704 7.68 0 11.776 2.048 16.896 3.584 5.632 2.048 17.92 7.168 33.792 14.848 1.536 0.512 3.072 1.536 4.096 2.56l4.608 1.536c23.04 10.752 48.64 23.04 64.512 32.768 5.632 3.584 9.216 5.632 14.848 11.776 2.56 3.072 4.608 6.656 5.12 10.24h0.512c0.512 0 0 0 0 0h2.048s0.512 0 0.512 0.512c1.536 1.024 3.072 2.56 4.608 4.096l0.512 0.512 37.888 45.568V231.936c0-23.552-18.944-42.496-42.496-42.496H241.664c-23.04 0-42.496 18.944-42.496 42.496v557.568c0 23.552 18.944 42.496 42.496 42.496h525.824c16.896 0 31.744-10.24 38.4-24.576l-7.68-9.216c-3.584-4.096-5.12-8.704-5.12-13.312z m-512.512-378.88V267.264c0-15.872 12.8-28.672 28.672-28.672h133.632c15.872 0 28.672 12.8 28.672 28.672v138.752c0 15.872-12.8 28.672-28.672 28.672H309.248c-15.872 0-28.672-13.312-28.672-28.672z m430.592 331.776H290.816c-10.752 0-10.752-16.896 0-16.896H711.68c10.752 0 10.752 16.896-0.512 16.896z" fill="#FFFFFF" p-id="6652"></path><path d="M376.32 343.04c20.48 0 36.864-16.384 36.864-36.864s-16.384-36.864-36.864-36.864-36.864 16.384-36.864 36.864 16.384 36.864 36.864 36.864z m0 5.632c-32.256 0-58.88 31.232-64.512 72.704h129.024c-5.632-41.472-32.256-72.704-64.512-72.704z" fill="#FFFFFF" p-id="6653"></path></svg>