<?xml version="1.0" standalone="no"?><!DOCTYPE svg PUBLIC "-//W3C//DTD SVG 1.1//EN" "http://www.w3.org/Graphics/SVG/1.1/DTD/svg11.dtd"><svg t="1632380874002" class="icon" viewBox="0 0 1024 1024" version="1.1" xmlns="http://www.w3.org/2000/svg" p-id="9407" xmlns:xlink="http://www.w3.org/1999/xlink" width="200" height="200"><defs><style type="text/css"></style></defs><path d="M878.08 0h-732.16C65.536 0 0 65.536 0 145.92v732.16C0 958.464 65.536 1024 145.92 1024h732.16c80.384 0 145.92-65.536 145.92-145.92v-732.16C1024 65.536 958.464 0 878.08 0z" fill="#FF5F76" p-id="9408"></path><path d="M640 183.808H304.128c-30.72 0-54.784 24.576-54.784 54.784v188.928H194.56c-14.336 0-26.624 12.288-26.624 26.624v229.888c0 16.384 12.288 28.672 26.624 28.672h54.784v67.072c0 30.72 24.576 54.784 54.784 54.784h461.312c30.72 0 54.784-24.576 54.784-54.784V363.008l-180.224-179.2zM228.864 573.44v56.32H209.92V504.32h18.944v52.736h65.536V504.32h18.944V629.76h-18.944v-56.32H228.864zM778.24 779.776c0 8.192-6.144 14.336-14.336 14.336H304.128c-8.192 0-14.336-6.144-14.336-14.336v-67.072H696.32c14.336 0 26.624-12.288 26.624-26.624V454.144c0-14.336-12.288-26.624-26.624-26.624H290.304V238.592c0-8.192 6.144-14.336 14.336-14.336h319.488L629.76 230.4v81.408c0 34.816 28.672 62.976 62.976 62.976h81.408l4.096 6.144v398.848z m-449.536-259.584v-16.384h102.912v16.384h-41.984V629.76h-18.944v-109.056h-41.984v-0.512z m231.424 19.968l-38.4 89.6h-16.384l-38.4-89.6H465.92V629.76h-18.944V504.32h22.528l44.032 100.352h0.512l43.52-100.352h22.528V629.76h-18.944v-89.6h-1.024z m132.608 73.216v16.384h-88.064V504.32h18.944v109.056h69.12z" fill="#FFFFFF" p-id="9409"></path></svg>