<?xml version="1.0" standalone="no"?><!DOCTYPE svg PUBLIC "-//W3C//DTD SVG 1.1//EN" "http://www.w3.org/Graphics/SVG/1.1/DTD/svg11.dtd"><svg t="1632380299672" class="icon" viewBox="0 0 1024 1024" version="1.1" xmlns="http://www.w3.org/2000/svg" p-id="7372" xmlns:xlink="http://www.w3.org/1999/xlink" width="200" height="200"><defs><style type="text/css"></style></defs><path d="M878.08 0h-732.16C65.536 0 0 65.536 0 145.92v732.16C0 958.464 65.536 1024 145.92 1024h732.16c80.384 0 145.92-65.536 145.92-145.92v-732.16C1024 65.536 958.464 0 878.08 0z" fill="#FF8D0A" p-id="7373"></path><path d="M216.576 522.752h179.2c32.768 0 59.392-26.624 59.392-59.392V344.064c0-21.504-11.776-41.472-30.72-51.712 0-2.56 0.512-5.12 0.512-7.68v-29.696C424.96 189.44 371.712 135.68 305.664 135.68S186.88 188.928 186.88 254.976v29.696c0 2.56 0.512 5.12 1.024 7.68-18.944 10.24-30.72 30.208-30.72 51.712V463.872c0 32.256 26.624 58.88 59.392 58.88z m105.472-110.08v38.4c0 1.536-1.536 3.072-3.072 3.072h-20.48c-1.536 0-3.072-1.536-3.072-3.072v-38.4c-9.728-5.12-16.384-14.848-16.384-26.624 0-16.384 13.312-29.696 29.696-29.696s29.696 13.824 29.696 29.696c0 11.776-6.656 21.504-16.384 26.624zM216.576 254.976c0-23.552 9.216-46.592 26.112-62.976 16.896-16.896 39.424-26.112 63.488-26.112 49.152 0 89.088 39.936 89.088 89.6v29.696H216.576v-30.208zM550.912 766.976H185.856c-17.92 0.512-32.256 14.848-32.768 32.768-0.512 18.944 13.824 34.816 32.768 35.328h365.568c18.944 0 34.304-15.36 34.304-34.304-0.512-18.432-15.872-33.792-34.816-33.792zM884.736 626.688H189.44c-20.992 0.512-37.888 15.36-37.888 34.304s16.896 33.792 37.888 34.304h695.296c20.992-0.512 37.888-15.36 37.888-34.304s-16.384-33.792-37.888-34.304z" fill="#FFFFFF" p-id="7374"></path></svg>