<?xml version="1.0" standalone="no"?><!DOCTYPE svg PUBLIC "-//W3C//DTD SVG 1.1//EN" "http://www.w3.org/Graphics/SVG/1.1/DTD/svg11.dtd"><svg t="1632381148020" class="icon" viewBox="0 0 1024 1024" version="1.1" xmlns="http://www.w3.org/2000/svg" p-id="10275" xmlns:xlink="http://www.w3.org/1999/xlink" width="200" height="200"><defs><style type="text/css"></style></defs><path d="M896 1024H128c-70.656 0-128-57.856-128-128V128C0 57.856 57.856 0 128 0h768c70.656 0 128 57.856 128 128v768c0 70.656-57.344 128-128 128z" fill="#5EA162" p-id="10276"></path><path d="M705.024 323.072h92.672L658.944 184.32v92.672c0 36.864 9.216 46.08 46.08 46.08z" fill="#FFFFFF" p-id="10277"></path><path d="M507.904 755.712s73.728-110.592 184.32-110.592c40.448 0 76.288 14.848 104.96 33.792V369.152h-154.112c-11.264 0-30.72-9.216-30.72-30.72V184.32H304.128c-33.792 0-61.44 27.648-61.44 61.44v524.288c0 33.792 27.648 61.44 61.44 61.44h281.6c-48.64-32.256-77.824-75.776-77.824-75.776z" fill="#FFFFFF" p-id="10278"></path><path d="M342.016 568.32V456.192H424.96v18.944H364.032v25.088h56.32v18.944h-56.32v30.72h62.464v18.944l-84.48-0.512zM435.712 568.32l29.184-41.984-28.16-39.424h26.112l14.336 22.528 15.36-22.528h25.088l-27.648 38.4 30.208 42.496h-26.112l-16.384-25.088-16.896 25.088-25.088 0.512zM603.648 510.976l-20.992 3.584c-0.512-4.096-2.56-7.168-4.608-9.728-2.56-2.048-5.632-3.072-9.728-3.072-5.12 0-9.728 2.048-12.8 5.632-3.072 3.584-4.608 9.728-4.608 18.432 0 9.728 1.536 16.384 4.608 20.48 3.072 4.096 7.68 6.144 12.8 6.144 4.096 0 7.168-1.024 10.24-3.584 2.56-2.56 4.608-6.144 5.632-11.776l20.992 3.584c-2.048 9.728-6.144 16.896-12.8 22.016-6.144 5.12-14.336 7.168-25.088 7.168-11.776 0-21.504-3.584-28.16-11.264-7.168-7.68-10.752-17.92-10.752-31.232s3.584-24.064 10.752-31.232c7.168-7.168 16.896-11.264 28.672-11.264 9.728 0 17.92 2.048 23.552 6.144 5.632 4.608 9.728 11.264 12.288 19.968zM667.648 542.208l21.504 3.584c-2.56 7.68-7.168 13.824-12.8 17.92s-13.312 6.144-22.528 6.144c-14.336 0-24.576-4.608-31.232-13.824-5.12-7.168-8.192-16.896-8.192-28.16 0-13.312 3.584-24.064 10.752-31.744 7.168-7.68 15.872-11.264 26.624-11.264 12.288 0 21.504 4.096 28.672 11.776s10.24 19.968 10.24 36.864h-53.76c0 6.144 2.048 11.264 5.12 14.848 3.072 3.584 7.68 5.12 12.288 5.12 3.584 0 6.144-1.024 8.704-2.56s3.584-4.608 4.608-8.704z m1.536-21.504c0-6.144-1.536-10.752-4.608-14.336-3.072-3.072-6.656-4.608-11.264-4.608-4.608 0-8.704 1.536-11.776 5.12s-4.608 8.192-4.608 13.824h32.256zM707.584 568.32V456.192h21.504V568.32h-21.504z" fill="#5EA162" p-id="10279"></path><path d="M691.712 658.944c-96.768 0-161.792 96.768-161.792 96.768s65.024 96.768 161.792 96.768c96.768 0 161.792-96.768 161.792-96.768s-65.024-96.768-161.792-96.768z m0 160.768c-35.84 0-64-29.184-64-64s29.184-64 64-64c35.328 0 64 29.184 64 64 0 35.328-28.16 64-64 64z m-32.256-64c0 17.92 14.336 32.256 32.256 32.256s32.256-14.336 32.256-32.256-14.336-32.256-32.256-32.256c-8.704 0-16.896 3.584-23.04 9.216-6.144 6.144-9.216 14.336-9.216 23.04z" fill="#FFFFFF" p-id="10280"></path></svg>