<?xml version="1.0" standalone="no"?><!DOCTYPE svg PUBLIC "-//W3C//DTD SVG 1.1//EN" "http://www.w3.org/Graphics/SVG/1.1/DTD/svg11.dtd"><svg t="1632381190451" class="icon" viewBox="0 0 1024 1024" version="1.1" xmlns="http://www.w3.org/2000/svg" p-id="10421" xmlns:xlink="http://www.w3.org/1999/xlink" width="200" height="200"><defs><style type="text/css"></style></defs><path d="M896 1024H128c-70.656 0-128-57.856-128-128V128C0 57.856 57.856 0 128 0h768c70.656 0 128 57.856 128 128v768c0 70.656-57.344 128-128 128z" fill="#5EA162" p-id="10422"></path><path d="M705.024 323.072h92.672L658.944 184.32v92.672c0 36.864 9.216 46.08 46.08 46.08z" fill="#FFFFFF" p-id="10423"></path><path d="M530.432 733.696c0-82.944 67.072-150.016 150.528-150.016 46.592 0 88.576 21.504 116.224 54.784V369.152h-154.112c-11.264 0-30.72-9.216-30.72-30.72V184.32H304.128c-33.792 0-61.44 27.648-61.44 61.44v524.288c0 33.792 27.648 61.44 61.44 61.44h262.656c-22.528-26.112-36.352-60.416-36.352-97.792z" fill="#FFFFFF" p-id="10424"></path><path d="M681.984 861.696c-70.144 0-126.976-56.832-126.976-126.976s56.832-126.976 126.976-126.976 126.976 56.832 126.976 126.976-56.832 126.976-126.976 126.976z m-10.752-137.728h-42.496c-5.632 0-10.752 4.608-10.752 10.752 0 5.632 4.608 10.752 10.752 10.752h42.496v42.496c0 5.632 4.608 10.752 10.752 10.752 5.632 0 10.752-4.608 10.752-10.752v-42.496h42.496c5.632 0 10.752-4.608 10.752-10.752 0-5.632-4.608-10.752-10.752-10.752h-42.496v-42.496c0-5.632-4.608-10.752-10.752-10.752s-10.752 4.608-10.752 10.752v42.496z" fill="#FFFFFF" p-id="10425"></path><path d="M331.776 532.48V420.352H414.72v18.944H353.792v25.088h56.32v18.944h-56.32v30.72h62.464v18.944l-84.48-0.512zM425.472 532.48l29.184-41.984-28.16-39.424h26.112l14.336 22.528 15.36-22.528h25.088l-27.648 38.4 30.208 42.496h-26.112L467.456 506.88l-16.896 25.088-25.088 0.512zM593.408 475.136l-20.992 3.584c-0.512-4.096-2.56-7.168-4.608-9.728-2.56-2.048-5.632-3.072-9.728-3.072-5.12 0-9.728 2.048-12.8 5.632s-4.608 9.728-4.608 18.432c0 9.728 1.536 16.384 4.608 20.48s7.68 6.144 12.8 6.144c4.096 0 7.168-1.024 10.24-3.584 2.56-2.56 4.608-6.144 5.632-11.776l20.992 3.584c-2.048 9.728-6.144 16.896-12.8 22.016-6.144 5.12-14.336 7.168-25.088 7.168-11.776 0-21.504-3.584-28.16-11.264-7.168-7.68-10.752-17.92-10.752-31.232s3.584-24.064 10.752-31.232 16.896-11.264 28.672-11.264c9.728 0 17.92 2.048 23.552 6.144 5.632 4.608 9.728 11.264 12.288 19.968zM657.408 506.368l21.504 3.584c-2.56 7.68-7.168 13.824-12.8 17.92s-13.312 6.144-22.528 6.144c-14.336 0-24.576-4.608-31.232-13.824-5.12-7.168-8.192-16.896-8.192-28.16 0-13.312 3.584-24.064 10.752-31.744s15.872-11.264 26.624-11.264c12.288 0 21.504 4.096 28.672 11.776s10.24 19.968 10.24 36.864h-53.76c0 6.144 2.048 11.264 5.12 14.848 3.072 3.584 7.68 5.12 12.288 5.12 3.584 0 6.144-1.024 8.704-2.56s3.584-4.608 4.608-8.704z m1.536-21.504c0-6.144-1.536-10.752-4.608-14.336-3.072-3.072-6.656-4.608-11.264-4.608-4.608 0-8.704 1.536-11.776 5.12s-4.608 8.192-4.608 13.824h32.256zM697.344 532.48V420.352h21.504V532.48h-21.504z" fill="#5EA162" p-id="10426"></path></svg>