<?xml version="1.0" standalone="no"?><!DOCTYPE svg PUBLIC "-//W3C//DTD SVG 1.1//EN" "http://www.w3.org/Graphics/SVG/1.1/DTD/svg11.dtd"><svg t="1632381082708" class="icon" viewBox="0 0 1024 1024" version="1.1" xmlns="http://www.w3.org/2000/svg" p-id="10131" xmlns:xlink="http://www.w3.org/1999/xlink" width="200" height="200"><defs><style type="text/css"></style></defs><path d="M896 1024H128c-70.656 0-128-57.856-128-128V128C0 57.856 57.856 0 128 0h768c70.656 0 128 57.856 128 128v768c0 70.656-57.344 128-128 128z" fill="#5EA162" p-id="10132"></path><path d="M573.952 724.48l151.04-151.552 80.384 80.384-151.04 151.552-80.384-80.384z m248.832-88.576L742.4 555.52l22.016-22.016c10.24-10.24 27.136-10.24 37.376 0l43.008 43.008c10.24 10.24 10.24 27.136 0 37.376l-22.016 22.016z m-265.728 105.472l-34.304 118.272 114.688-37.888-38.4-38.4-41.984-41.984zM771.072 457.728V220.672c0-19.456-16.384-35.328-36.352-35.328H290.304c-19.968 0-36.352 15.872-36.352 35.328v553.984c0 19.456 16.384 35.328 36.352 35.328h129.024l351.744-352.256z" fill="#FFFFFF" p-id="10133"></path><path d="M332.288 374.272V268.288h78.336v17.92H353.28v23.552h53.248V327.68H353.28v29.184h58.88v17.92l-79.872-0.512zM420.864 374.272l27.648-39.424-26.624-37.376h24.576l13.312 21.504 14.336-21.504h23.552l-26.112 36.352 28.672 39.936h-24.576l-15.36-23.552-15.872 23.552-23.552 0.512zM579.584 320l-19.968 3.584c-0.512-4.096-2.56-6.656-4.608-9.216-2.56-2.048-5.12-3.072-9.216-3.072-4.608 0-9.216 2.048-12.288 5.12-3.072 3.584-4.096 9.216-4.096 17.408 0 9.216 1.536 15.36 4.096 19.456 3.072 4.096 7.168 5.632 12.288 5.632 4.096 0 6.656-1.024 9.728-3.584 2.56-2.56 4.096-5.632 5.12-11.264l19.968 3.584c-2.048 9.216-5.632 15.872-12.288 20.992-5.632 4.608-13.312 6.656-23.552 6.656-11.264 0-20.48-3.584-26.624-10.752-6.656-7.168-10.24-16.896-10.24-29.696s3.584-22.528 10.24-29.696c6.656-6.656 15.872-10.752 27.136-10.752 9.216 0 16.896 2.048 22.016 5.632 5.632 5.632 9.728 11.776 12.288 19.968zM640 349.696l20.48 3.584c-2.56 7.168-6.656 12.8-12.288 16.896-5.12 4.096-12.8 5.632-21.504 5.632-13.312 0-23.04-4.608-29.696-13.312-4.608-6.656-7.68-15.872-7.68-26.624 0-12.8 3.584-22.528 10.24-30.208 6.656-7.168 14.848-10.752 25.088-10.752 11.776 0 20.48 4.096 27.136 11.264s9.728 18.944 9.728 34.816h-50.688c0 5.632 2.048 10.752 4.608 13.824 3.072 3.584 7.168 4.608 11.776 4.608 3.584 0 5.632-1.024 8.192-2.56 2.56-0.512 3.584-3.584 4.608-7.168z m1.536-20.48c0-5.632-1.536-10.24-4.096-13.312-3.072-3.072-6.144-4.096-10.752-4.096s-8.192 1.536-11.264 4.608-4.096 7.68-4.096 12.8h30.208zM677.376 374.272V268.288h20.48v105.984h-20.48z" fill="#5EA162" p-id="10134"></path></svg>