<?xml version="1.0" standalone="no"?><!DOCTYPE svg PUBLIC "-//W3C//DTD SVG 1.1//EN" "http://www.w3.org/Graphics/SVG/1.1/DTD/svg11.dtd"><svg t="1632380802257" class="icon" viewBox="0 0 1024 1024" version="1.1" xmlns="http://www.w3.org/2000/svg" p-id="9117" xmlns:xlink="http://www.w3.org/1999/xlink" width="200" height="200"><defs><style type="text/css"></style></defs><path d="M57.344 704.512h581.632c28.16 0 51.2-23.04 51.2-51.2V71.68c0-28.16-23.04-51.2-51.2-51.2H57.344c-28.16 0-51.2 23.04-51.2 51.2v581.632c0 28.16 23.04 51.2 51.2 51.2z" fill="#C24CDB" p-id="9118"></path><path d="M756.736 1018.88h207.36c30.208 0 55.296-25.088 55.296-55.296v-388.096L838.144 394.24H450.048c-30.208 0-55.296 25.088-55.296 55.296v514.048c0 30.208 25.088 55.296 55.296 55.296h306.688z m68.608-592.384l162.304 162.304v1.024h-122.88c-22.016 0-39.424-17.92-39.424-39.424V426.496z m-399.36 537.088V449.536c0-12.288 11.264-24.064 24.064-24.064H793.6v124.928c0 38.4 31.232 70.656 70.656 70.656H988.16v342.528c0 13.312-11.264 24.064-24.064 24.064H450.048c-13.824 0-24.064-11.264-24.064-24.064z" fill="#C24CDB" p-id="9119"></path><path d="M588.8 771.072h142.336c5.632 0 10.24-4.608 10.24-10.24s-4.608-10.24-10.24-10.24H588.8c-5.632 0-10.24 4.608-10.24 10.24s4.608 10.24 10.24 10.24z m0 75.264h239.616c5.632 0 10.24-4.608 10.24-10.24s-4.608-10.24-10.24-10.24H588.8c-5.632 0-10.24 4.608-10.24 10.24s4.608 10.24 10.24 10.24z m239.616 76.288c5.632 0 10.24-4.608 10.24-10.24s-4.608-10.24-10.24-10.24H588.8c-5.632 0-10.24 4.608-10.24 10.24s4.608 10.24 10.24 10.24h239.616zM742.4 48.64h57.344c20.48 0 36.864 8.192 51.2 23.04 14.336 14.336 19.456 34.304 19.456 55.296V245.76l-38.912-39.424c-4.096-4.096-9.728-5.12-14.848-3.072-7.168 3.072-10.752 11.264-7.68 18.432 0.512 1.536 1.536 3.072 3.072 4.608l61.952 62.464c5.12 5.632 14.336 5.632 19.456 0L957.44 224.256c5.632-5.632 5.12-14.336 0-19.968-1.536-1.536-3.584-3.072-6.144-3.584-4.608-1.536-9.728 0-13.312 3.584l-39.424 39.424V126.976c0-28.16-7.68-54.784-27.648-74.752-19.456-19.968-43.008-31.232-71.168-31.232H742.4c-5.12 0-9.728 2.56-11.776 7.168-2.56 4.096-2.56 9.728 0 13.824 2.048 4.096 6.656 6.656 11.776 6.656zM77.824 675.328h544.256c22.528 0 40.96-18.432 40.96-40.96V90.112c0-22.528-18.432-40.96-40.96-40.96H77.824c-22.528 0-40.96 18.432-40.96 40.96v544.256c0 22.528 18.432 40.96 40.96 40.96z" fill="#C24CDB" p-id="9120"></path><path d="M557.568 496.64H142.336c45.568-68.096 125.952-181.248 146.432-181.248 19.968 0 87.04 91.648 117.76 123.392 0 0 38.912-53.76 59.904-53.76 20.992 0.512 90.624 111.104 91.136 111.616zM435.712 259.584c0 28.16 22.528 51.2 50.176 51.2s50.176-23.04 50.176-51.2-22.528-51.2-50.176-51.2-50.176 23.04-50.176 51.2z" fill="#FFFFFF" p-id="9121"></path></svg>