<?xml version="1.0" encoding="utf-8"?>
<!-- Generator: Adobe Illustrator 22.0.0, SVG Export Plug-In . SVG Version: 6.00 Build 0)  -->
<svg version="1.1" id="图层_1" xmlns="http://www.w3.org/2000/svg" xmlns:xlink="http://www.w3.org/1999/xlink" x="0px" y="0px"
	 viewBox="0 0 200 200" style="enable-background:new 0 0 200 200;" xml:space="preserve">
<style type="text/css">
	.st0{fill:#1887A5;}
	.st1{fill:#FFFFFF;}
</style>
<path class="st0" d="M11.2,138.6h113.6c5.5,0,10-4.5,10-10V15c0-5.5-4.5-10-10-10H11.2c-5.5,0-10,4.5-10,10v113.6
	C1.2,134.1,5.7,138.6,11.2,138.6z"/>
<path class="st0" d="M147.8,200h40.5c5.9,0,10.8-4.9,10.8-10.8v-75.8L163.7,78H87.9c-5.9,0-10.8,4.9-10.8,10.8v100.4
	c0,5.9,4.9,10.8,10.8,10.8H147.8L147.8,200z M161.2,84.3l31.7,31.7v0.2h-24c-4.3,0-7.7-3.5-7.7-7.7
	C161.2,108.5,161.2,84.3,161.2,84.3z M83.2,189.2V88.8c0-2.4,2.2-4.7,4.7-4.7H155v24.4c0,7.5,6.1,13.8,13.8,13.8H193v66.9
	c0,2.6-2.2,4.7-4.7,4.7H87.9C85.2,193.9,83.2,191.7,83.2,189.2z"/>
<path class="st0" d="M115,151.6h27.8c1.1,0,2-0.9,2-2s-0.9-2-2-2H115c-1.1,0-2,0.9-2,2S113.9,151.6,115,151.6z M115,166.3h46.8
	c1.1,0,2-0.9,2-2s-0.9-2-2-2H115c-1.1,0-2,0.9-2,2S113.9,166.3,115,166.3z M161.8,181.2c1.1,0,2-0.9,2-2c0-1.1-0.9-2-2-2H115
	c-1.1,0-2,0.9-2,2c0,1.1,0.9,2,2,2H161.8z M145,10.5h11.2c4,0,7.2,1.6,10,4.5c2.8,2.8,3.8,6.7,3.8,10.8V49l-7.6-7.7
	c-0.8-0.8-1.9-1-2.9-0.6c-1.4,0.6-2.1,2.2-1.5,3.6c0.1,0.3,0.3,0.6,0.6,0.9l12.1,12.2c1,1.1,2.8,1.1,3.8,0L187,44.8
	c1.1-1.1,1-2.8,0-3.9c-0.3-0.3-0.7-0.6-1.2-0.7c-0.9-0.3-1.9,0-2.6,0.7l-7.7,7.7V25.8c0-5.5-1.5-10.7-5.4-14.6
	c-3.8-3.9-8.4-6.1-13.9-6.1H145c-1,0-1.9,0.5-2.3,1.4c-0.5,0.8-0.5,1.9,0,2.7C143.1,10,144,10.5,145,10.5z M15.2,132.9h106.3
	c4.4,0,8-3.6,8-8V18.6c0-4.4-3.6-8-8-8H15.2c-4.4,0-8,3.6-8,8v106.3C7.2,129.3,10.8,132.9,15.2,132.9z"/>
<path class="st1" d="M43.5,70.6c0-5,0.7-9.2,2.2-12.6c1.1-2.5,2.6-4.7,4.6-6.7c1.9-2,4-3.5,6.3-4.4c3.1-1.3,6.6-1.9,10.6-1.9
	c7.2,0,13,2.2,17.4,6.7c4.3,4.5,6.5,10.7,6.5,18.7c0,7.9-2.2,14.1-6.5,18.6c-4.3,4.5-10.1,6.7-17.3,6.7c-7.3,0-13.1-2.2-17.4-6.7
	C45.7,84.6,43.5,78.4,43.5,70.6z M53.8,70.3c0,5.6,1.3,9.8,3.9,12.6c2.6,2.9,5.8,4.3,9.8,4.3c4,0,7.2-1.4,9.7-4.3
	c2.5-2.8,3.8-7.1,3.8-12.8c0-5.6-1.2-9.8-3.7-12.6c-2.5-2.8-5.7-4.2-9.8-4.2s-7.4,1.4-9.9,4.2C55,60.4,53.8,64.6,53.8,70.3z"/>
</svg>
