<?xml version="1.0" encoding="utf-8"?>
<!-- Generator: Adobe Illustrator 22.0.0, SVG Export Plug-In . SVG Version: 6.00 Build 0)  -->
<svg version="1.1" id="图层_1" xmlns="http://www.w3.org/2000/svg" xmlns:xlink="http://www.w3.org/1999/xlink" x="0px" y="0px"
	 viewBox="0 0 200 200" style="enable-background:new 0 0 200 200;" xml:space="preserve">
<style type="text/css">
	.st0{fill:#009294;}
	.st1{fill:#FFFFFF;}
</style>
<path class="st0" d="M175,200H25c-13.8,0-25-11.3-25-25V25C0,11.3,11.3,0,25,0h150c13.8,0,25,11.3,25,25v150
	C200,188.8,188.8,200,175,200z"/>
<path class="st1" d="M56.4,138.3h-4.5c-7.4,0-13.4-6-13.4-13.4V50.8c0-7.4,6-13.4,13.4-13.4h74.2c7.4,0,13.4,6,13.4,13.4v4.5
	c0,2.5-2,4.5-4.5,4.5c-2.5,0-4.5-2-4.5-4.5v-4.5c0-1.2-0.5-2.3-1.3-3.2s-2-1.3-3.2-1.3H51.9c-2.5,0-4.5,2-4.5,4.5v74.2
	c0,1.2,0.5,2.3,1.3,3.2c0.8,0.8,2,1.3,3.2,1.3h4.5c2.5,0,4.5,2,4.5,4.5C60.8,136.3,58.8,138.3,56.4,138.3L56.4,138.3z"/>
<path class="st1" d="M154.3,61.1H71.2c-4.9,0-8.9,4-8.9,8.9v83.1c0,4.9,4,8.9,8.9,8.9h83.1c2.4,0,4.6-0.9,6.3-2.6
	c1.7-1.7,2.6-3.9,2.6-6.3V70C163.2,65.1,159.2,61.1,154.3,61.1z M119.5,132.9h-9.3V97.7c-3.5,3.2-7.6,5.6-12,7.1v-8.5
	c2.9-1.1,5.6-2.6,8-4.5c2.7-2,4.8-4.7,5.9-7.8h7.6L119.5,132.9z"/>
</svg>
