<?xml version="1.0" standalone="no"?><!DOCTYPE svg PUBLIC "-//W3C//DTD SVG 1.1//EN" "http://www.w3.org/Graphics/SVG/1.1/DTD/svg11.dtd"><svg t="1632382035871" class="icon" viewBox="0 0 1024 1024" version="1.1" xmlns="http://www.w3.org/2000/svg" p-id="11001" xmlns:xlink="http://www.w3.org/1999/xlink" width="200" height="200"><defs><style type="text/css"></style></defs><path d="M562.176 639.488H335.36v323.584c0 30.72 25.088 55.808 55.808 55.808h572.416c30.72 0 55.808-25.088 55.808-55.808V390.656c0-30.72-25.088-55.808-55.808-55.808h-341.504v244.736c0.512 32.768-27.136 59.904-59.904 59.904z" fill="#FF7651" p-id="11002"></path><path d="M573.44 642.56H366.08v295.936c0 28.16 23.04 51.2 51.2 51.2h523.776c28.16 0 51.2-23.04 51.2-51.2V414.72c0-28.16-23.04-51.2-51.2-51.2h-312.832v223.744c0 30.208-24.576 55.296-54.784 55.296z" fill="#FF7651" p-id="11003"></path><path d="M366.08 642.56H573.44c30.208 0 55.296-25.088 55.296-55.296V199.168L447.488 17.92H59.392C29.184 17.92 4.096 43.008 4.096 73.216v514.048c0 30.208 25.088 55.296 55.296 55.296h306.688zM434.688 50.176l162.304 162.304v1.024h-122.88c-22.016 0-39.424-17.92-39.424-39.424V50.176z m-399.36 537.088V73.216c0-12.288 11.264-24.064 24.064-24.064h343.552V174.08c0 38.4 31.232 70.656 70.656 70.656h123.904v342.528c0 13.312-11.264 24.064-24.064 24.064H59.392c-13.824 0-24.064-11.264-24.064-24.064z" fill="#FF7651" p-id="11004"></path><path d="M171.52 271.36h180.736c7.168 0 13.312-6.144 13.312-13.312 0-7.168-6.144-13.312-13.312-13.312H171.52c-7.168 0-13.312 6.144-13.312 13.312 0 7.168 6.144 13.312 13.312 13.312z m0 95.744h303.616c7.168 0 13.312-5.632 12.8-13.312 0-7.168-6.144-13.312-13.312-13.312H171.52c-7.168 0-13.312 6.144-13.312 13.312s6.144 13.312 13.312 13.312z m303.616 96.768c7.168 0 13.312-6.144 12.8-13.312 0-7.168-6.144-13.312-13.312-13.312H171.52c-7.168 0-13.312 6.144-13.312 13.312s6.144 13.312 13.312 13.312h303.616zM701.44 48.64h57.344c20.48 0 36.864 8.192 51.2 23.04 14.336 14.336 19.456 34.304 19.456 55.296V245.76l-38.912-39.424c-4.096-4.096-9.728-5.12-14.848-3.072-7.168 3.072-10.752 11.264-7.68 18.432 0.512 1.536 1.536 3.072 3.072 4.608l61.952 62.464c5.12 5.632 14.336 5.632 19.456 0L916.48 224.256c5.632-5.632 5.12-14.336 0-19.968-1.536-1.536-3.584-3.072-6.144-3.584-4.608-1.536-9.728 0-13.312 3.584l-39.424 39.424V126.976c0-28.16-7.68-54.784-27.648-74.752-19.456-19.968-43.008-31.232-71.168-31.232H701.44c-5.12 0-9.728 2.56-11.776 7.168-2.56 4.096-2.56 9.728 0 13.824 2.048 4.096 6.656 6.656 11.776 6.656z" fill="#FF7651" p-id="11005"></path><path d="M704.512 890.368v-198.656h64.512c24.576 0 40.448 1.024 47.616 3.072 11.264 3.072 20.992 9.216 28.672 19.456 7.68 9.728 11.264 23.04 11.264 38.4 0 12.288-2.048 22.528-6.656 30.72-4.608 8.192-10.24 14.848-16.896 19.456-6.656 4.608-13.824 7.68-20.992 9.216-9.728 2.048-23.552 3.072-41.472 3.072h-26.112v74.752l-39.936 0.512z m39.936-164.352v56.32h22.016c15.872 0 26.112-1.024 31.744-3.072 5.632-2.048 9.728-5.12 12.288-9.728 3.072-4.608 4.608-9.728 4.608-15.36 0-7.168-2.048-13.312-6.144-17.92s-9.728-7.68-15.872-8.704c-4.608-1.024-14.336-1.536-28.672-1.536h-19.968z" fill="#FFFFFF" p-id="11006"></path></svg>