<?xml version="1.0" standalone="no"?><!DOCTYPE svg PUBLIC "-//W3C//DTD SVG 1.1//EN" "http://www.w3.org/Graphics/SVG/1.1/DTD/svg11.dtd"><svg t="1632382011129" class="icon" viewBox="0 0 1024 1024" version="1.1" xmlns="http://www.w3.org/2000/svg" p-id="10855" xmlns:xlink="http://www.w3.org/1999/xlink" width="200" height="200"><defs><style type="text/css"></style></defs><path d="M562.176 639.488H335.36v323.584c0 30.72 25.088 55.808 55.808 55.808h572.416c30.72 0 55.808-25.088 55.808-55.808V390.656c0-30.72-25.088-55.808-55.808-55.808h-341.504v244.736c0.512 32.768-27.136 59.904-59.904 59.904z" fill="#B7AC65" p-id="10856"></path><path d="M573.44 642.56H366.08v295.936c0 28.16 23.04 51.2 51.2 51.2h523.776c28.16 0 51.2-23.04 51.2-51.2V414.72c0-28.16-23.04-51.2-51.2-51.2h-312.832v223.744c0 30.208-24.576 55.296-54.784 55.296z" fill="#B7AC65" p-id="10857"></path><path d="M366.08 642.56H573.44c30.208 0 55.296-25.088 55.296-55.296V199.168L447.488 17.92H59.392C29.184 17.92 4.096 43.008 4.096 73.216v514.048c0 30.208 25.088 55.296 55.296 55.296h306.688zM434.688 50.176l162.304 162.304v1.024h-122.88c-22.016 0-39.424-17.92-39.424-39.424V50.176z m-399.36 537.088V73.216c0-12.288 11.264-24.064 24.064-24.064h343.552V174.08c0 38.4 31.232 70.656 70.656 70.656h123.904v342.528c0 13.312-11.264 24.064-24.064 24.064H59.392c-13.824 0-24.064-11.264-24.064-24.064z" fill="#B7AC65" p-id="10858"></path><path d="M171.52 271.36h180.736c7.168 0 13.312-6.144 13.312-13.312 0-7.168-6.144-13.312-13.312-13.312H171.52c-7.168 0-13.312 6.144-13.312 13.312 0 7.168 6.144 13.312 13.312 13.312z m0 95.744h303.616c7.168 0 13.312-5.632 12.8-13.312 0-7.168-6.144-13.312-13.312-13.312H171.52c-7.168 0-13.312 6.144-13.312 13.312s6.144 13.312 13.312 13.312z m303.616 96.768c7.168 0 13.312-6.144 12.8-13.312 0-7.168-6.144-13.312-13.312-13.312H171.52c-7.168 0-13.312 6.144-13.312 13.312s6.144 13.312 13.312 13.312h303.616zM701.44 48.64h57.344c20.48 0 36.864 8.192 51.2 23.04 14.336 14.336 19.456 34.304 19.456 55.296V245.76l-38.912-39.424c-4.096-4.096-9.728-5.12-14.848-3.072-7.168 3.072-10.752 11.264-7.68 18.432 0.512 1.536 1.536 3.072 3.072 4.608l61.952 62.464c5.12 5.632 14.336 5.632 19.456 0L916.48 224.256c5.632-5.632 5.12-14.336 0-19.968-1.536-1.536-3.584-3.072-6.144-3.584-4.608-1.536-9.728 0-13.312 3.584l-39.424 39.424V126.976c0-28.16-7.68-54.784-27.648-74.752-19.456-19.968-43.008-31.232-71.168-31.232H701.44c-5.12 0-9.728 2.56-11.776 7.168-2.56 4.096-2.56 9.728 0 13.824 2.048 4.096 6.656 6.656 11.776 6.656z" fill="#B7AC65" p-id="10859"></path><path d="M492.032 872.448V732.16h45.568c17.408 0 28.672 0.512 33.792 2.048 8.192 2.048 14.848 6.656 19.968 13.824 5.632 7.168 8.192 16.384 8.192 27.136 0 8.704-1.536 15.872-4.608 21.504s-7.168 10.24-11.776 13.824-9.728 5.632-14.848 6.656c-6.656 1.536-16.384 2.048-29.184 2.048h-18.432v52.736h-28.672v0.512z m28.16-116.736v39.936h15.36c11.264 0 18.432-0.512 22.528-2.048 3.584-1.536 6.656-3.584 8.704-6.656s3.072-6.656 3.072-10.752c0-5.12-1.536-9.216-4.608-12.8-3.072-3.072-6.656-5.632-11.264-6.144-3.584-0.512-10.24-1.024-20.48-1.024h-13.312v-0.512z m102.912 116.736V732.16h27.648l57.344 93.696V732.16h26.112v140.288h-28.16l-56.32-91.648v91.648h-26.624z m206.336-51.712v-23.552h60.928v55.808c-6.144 5.632-14.336 10.752-25.6 15.36-11.264 4.608-22.528 6.656-34.304 6.656-14.848 0-27.648-3.072-38.4-9.216-10.752-6.144-18.944-14.848-24.576-26.624-5.632-11.264-8.192-24.064-8.192-37.376 0-14.848 3.072-27.648 9.216-38.912s14.848-19.968 26.624-26.112c9.216-4.608 19.968-7.168 33.792-7.168 17.408 0 31.232 3.584 40.96 10.752 9.728 7.168 15.872 17.408 18.944 30.208l-28.16 5.12c-2.048-6.656-5.632-12.288-11.264-16.384s-12.288-6.144-20.48-6.144c-12.288 0-22.016 4.096-29.696 11.776-7.168 7.68-10.752 19.456-10.752 34.816 0 16.896 3.584 29.184 11.264 37.376s16.896 12.288 29.184 12.288c6.144 0 11.776-1.024 17.92-3.584s11.264-5.12 15.36-8.704V819.2H829.44v1.536z" fill="#FFFFFF" p-id="10860"></path></svg>