<?xml version="1.0" standalone="no"?><!DOCTYPE svg PUBLIC "-//W3C//DTD SVG 1.1//EN" "http://www.w3.org/Graphics/SVG/1.1/DTD/svg11.dtd"><svg t="1632380848709" class="icon" viewBox="0 0 1024 1024" version="1.1" xmlns="http://www.w3.org/2000/svg" p-id="9262" xmlns:xlink="http://www.w3.org/1999/xlink" width="200" height="200"><defs><style type="text/css"></style></defs><path d="M57.344 704.512h581.632c28.16 0 51.2-23.04 51.2-51.2V71.68c0-28.16-23.04-51.2-51.2-51.2H57.344c-28.16 0-51.2 23.04-51.2 51.2v581.632c0 28.16 23.04 51.2 51.2 51.2z" fill="#B7AC65" p-id="9263"></path><path d="M756.736 1018.88h207.36c30.208 0 55.296-25.088 55.296-55.296v-388.096L838.144 394.24H450.048c-30.208 0-55.296 25.088-55.296 55.296v514.048c0 30.208 25.088 55.296 55.296 55.296h306.688z m68.608-592.384l162.304 162.304v1.024h-122.88c-22.016 0-39.424-17.92-39.424-39.424V426.496z m-399.36 537.088V449.536c0-12.288 11.264-24.064 24.064-24.064H793.6v124.928c0 38.4 31.232 70.656 70.656 70.656H988.16v342.528c0 13.312-11.264 24.064-24.064 24.064H450.048c-13.824 0-24.064-11.264-24.064-24.064z" fill="#B7AC65" p-id="9264"></path><path d="M588.8 771.072h142.336c5.632 0 10.24-4.608 10.24-10.24s-4.608-10.24-10.24-10.24H588.8c-5.632 0-10.24 4.608-10.24 10.24s4.608 10.24 10.24 10.24z m0 75.264h239.616c5.632 0 10.24-4.608 10.24-10.24s-4.608-10.24-10.24-10.24H588.8c-5.632 0-10.24 4.608-10.24 10.24s4.608 10.24 10.24 10.24z m239.616 76.288c5.632 0 10.24-4.608 10.24-10.24s-4.608-10.24-10.24-10.24H588.8c-5.632 0-10.24 4.608-10.24 10.24s4.608 10.24 10.24 10.24h239.616zM742.4 48.64h57.344c20.48 0 36.864 8.192 51.2 23.04 14.336 14.336 19.456 34.304 19.456 55.296V245.76l-38.912-39.424c-4.096-4.096-9.728-5.12-14.848-3.072-7.168 3.072-10.752 11.264-7.68 18.432 0.512 1.536 1.536 3.072 3.072 4.608l61.952 62.464c5.12 5.632 14.336 5.632 19.456 0L957.44 224.256c5.632-5.632 5.12-14.336 0-19.968-1.536-1.536-3.584-3.072-6.144-3.584-4.608-1.536-9.728 0-13.312 3.584l-39.424 39.424V126.976c0-28.16-7.68-54.784-27.648-74.752-19.456-19.968-43.008-31.232-71.168-31.232H742.4c-5.12 0-9.728 2.56-11.776 7.168-2.56 4.096-2.56 9.728 0 13.824 2.048 4.096 6.656 6.656 11.776 6.656zM77.824 675.328h544.256c22.528 0 40.96-18.432 40.96-40.96V90.112c0-22.528-18.432-40.96-40.96-40.96H77.824c-22.528 0-40.96 18.432-40.96 40.96v544.256c0 22.528 18.432 40.96 40.96 40.96z" fill="#B7AC65" p-id="9265"></path><path d="M156.16 441.344V296.96h46.592c17.92 0 29.184 0.512 34.816 2.048 8.192 2.048 15.36 6.656 20.992 14.336 5.632 7.168 8.192 16.384 8.192 28.16 0 8.704-1.536 16.384-4.608 22.528s-7.168 10.752-12.288 14.336c-5.12 3.584-10.24 5.632-15.36 6.656-7.168 1.536-16.896 2.048-30.208 2.048h-18.944v54.272h-29.184z m29.184-119.808v40.96h15.872c11.264 0 18.944-0.512 23.04-2.048 4.096-1.536 6.656-4.096 9.216-7.168 2.048-3.072 3.072-7.168 3.072-11.264 0-5.12-1.536-9.728-4.608-12.8-3.072-3.584-6.656-6.144-11.776-6.656-3.584-0.512-10.24-1.024-20.992-1.024h-13.824z m105.472 119.808V296.96h28.16l58.88 96.256V296.96h27.136v144.384h-29.184L317.952 347.136v94.208h-27.136z m212.48-53.248v-24.064h62.976v57.344c-6.144 6.144-14.848 11.264-26.624 15.36-11.776 4.608-23.552 6.656-35.328 6.656-14.848 0-28.16-3.072-39.424-9.728-11.264-6.144-19.456-15.36-25.088-27.136-5.632-11.776-8.704-24.576-8.704-38.4 0-14.848 3.072-28.16 9.216-39.936 6.144-11.776 15.36-20.48 27.648-26.624 9.216-4.608 20.992-7.168 34.304-7.168 17.92 0 31.744 3.584 41.984 11.264 10.24 7.68 16.384 17.92 19.456 31.232l-29.184 5.632c-2.048-7.168-5.632-12.8-11.264-16.896-5.632-4.096-12.8-6.144-20.992-6.144-12.8 0-23.04 4.096-30.208 12.288-7.168 8.192-11.264 19.968-11.264 35.84 0 16.896 3.584 30.208 11.264 38.4 7.68 8.704 17.408 12.8 29.696 12.8 6.144 0 12.288-1.024 18.432-3.584 6.144-2.56 11.264-5.12 15.872-8.704v-18.432h-32.768z" fill="#FFFFFF" p-id="9266"></path></svg>