<?xml version="1.0" standalone="no"?><!DOCTYPE svg PUBLIC "-//W3C//DTD SVG 1.1//EN" "http://www.w3.org/Graphics/SVG/1.1/DTD/svg11.dtd"><svg t="1632381241831" class="icon" viewBox="0 0 1024 1024" version="1.1" xmlns="http://www.w3.org/2000/svg" p-id="10567" xmlns:xlink="http://www.w3.org/1999/xlink" width="200" height="200"><defs><style type="text/css"></style></defs><path d="M896 1024H128c-70.656 0-128-57.856-128-128V128C0 57.856 57.856 0 128 0h768c70.656 0 128 57.856 128 128v768c0 70.656-57.344 128-128 128z" fill="#FF7651" p-id="10568"></path><path d="M705.024 323.072h92.672L658.944 184.32v92.672c0 36.864 9.216 46.08 46.08 46.08z" fill="#FFFFFF" p-id="10569"></path><path d="M530.432 733.696c0-82.944 67.072-150.016 150.528-150.016 46.592 0 88.576 21.504 116.224 54.784V369.152h-154.112c-11.264 0-30.72-9.216-30.72-30.72V184.32H304.128c-33.792 0-61.44 27.648-61.44 61.44v524.288c0 33.792 27.648 61.44 61.44 61.44h262.656c-22.528-26.112-36.352-60.416-36.352-97.792z" fill="#FFFFFF" p-id="10570"></path><path d="M681.984 861.696c-70.144 0-126.976-56.832-126.976-126.976s56.832-126.976 126.976-126.976 126.976 56.832 126.976 126.976-56.832 126.976-126.976 126.976z m-10.752-137.728h-42.496c-5.632 0-10.752 4.608-10.752 10.752 0 5.632 4.608 10.752 10.752 10.752h42.496v42.496c0 5.632 4.608 10.752 10.752 10.752 5.632 0 10.752-4.608 10.752-10.752v-42.496h42.496c5.632 0 10.752-4.608 10.752-10.752 0-5.632-4.608-10.752-10.752-10.752h-42.496v-42.496c0-5.632-4.608-10.752-10.752-10.752s-10.752 4.608-10.752 10.752v42.496z" fill="#FFFFFF" p-id="10571"></path><path d="M355.328 547.84V414.72h43.008c16.384 0 27.136 0.512 31.744 2.048 7.68 2.048 13.824 6.144 18.944 12.8s7.68 15.36 7.68 26.112c0 8.192-1.536 14.848-4.608 20.48-3.072 5.632-6.656 9.728-11.264 13.312-4.608 3.072-9.216 5.12-13.824 6.144-6.656 1.024-15.872 2.048-27.648 2.048h-17.408v50.176h-26.624z m27.136-110.592v37.888h14.848c10.752 0 17.92-0.512 20.992-2.048 3.584-1.536 6.144-3.584 8.192-6.656 2.048-3.072 3.072-6.656 3.072-10.24 0-4.608-1.536-8.704-4.096-11.776-3.072-3.072-6.656-5.12-10.752-6.144-3.072-0.512-9.728-1.024-19.456-1.024h-12.8zM479.744 547.84V414.72h43.008c16.384 0 27.136 0.512 31.744 2.048 7.68 2.048 13.824 6.144 18.944 12.8s7.68 15.36 7.68 26.112c0 8.192-1.536 14.848-4.608 20.48-3.072 5.632-6.656 9.728-11.264 13.312-4.608 3.072-9.216 5.12-13.824 6.144-6.656 1.024-15.872 2.048-27.648 2.048h-17.408v50.176h-26.624z m26.624-110.592v37.888h14.848c10.752 0 17.92-0.512 20.992-2.048 3.584-1.536 6.144-3.584 8.192-6.656 2.048-3.072 3.072-6.656 3.072-10.24 0-4.608-1.536-8.704-4.096-11.776-3.072-3.072-6.656-5.12-10.752-6.144-3.072-0.512-9.728-1.024-19.456-1.024h-12.8zM633.344 547.84V437.248H593.92V414.72h105.472v22.528H660.48V547.84h-27.136z" fill="#FF7651" p-id="10572"></path></svg>