<?xml version="1.0" standalone="no"?><!DOCTYPE svg PUBLIC "-//W3C//DTD SVG 1.1//EN" "http://www.w3.org/Graphics/SVG/1.1/DTD/svg11.dtd"><svg t="1632380224424" class="icon" viewBox="0 0 1024 1024" version="1.1" xmlns="http://www.w3.org/2000/svg" p-id="7086" xmlns:xlink="http://www.w3.org/1999/xlink" width="200" height="200"><defs><style type="text/css"></style></defs><path d="M878.08 0h-732.16C65.536 0 0 65.536 0 145.92v732.16C0 958.464 65.536 1024 145.92 1024h732.16c80.384 0 145.92-65.536 145.92-145.92v-732.16C1024 65.536 958.464 0 878.08 0z" fill="#4E90AE" p-id="7087"></path><path d="M636.928 318.976c-4.096 0-7.68-1.536-10.752-4.608-3.072-3.072-5.632-6.656-7.68-10.752-2.048-4.096-3.584-8.192-4.608-12.8-1.024-4.096-1.536-7.68-1.536-10.752V204.288h1.024c3.584 0 7.168 0.512 10.752 1.024 3.072 1.024 7.168 2.56 12.288 5.632s10.752 7.168 17.408 12.8 15.36 12.8 25.6 22.016c11.264 9.728 19.968 18.432 26.624 25.088 6.656 6.656 11.776 12.8 14.848 17.408 3.072 4.608 5.632 8.704 6.656 12.288 1.024 3.072 1.536 6.144 1.536 8.704v9.728h-92.16z m71.168 230.912c18.944 0 36.864 3.584 53.248 10.752 16.384 7.168 30.72 16.896 43.008 29.184 12.288 12.288 22.016 26.624 29.184 43.008s10.752 33.792 10.752 52.736c0 18.944-3.584 36.864-10.752 53.248s-16.896 30.72-29.184 43.008c-12.288 12.288-26.624 22.016-43.008 29.184-16.384 7.168-34.304 10.752-53.248 10.752-18.432 0-35.84-3.584-52.736-10.752-16.384-7.168-30.72-16.896-43.008-29.184-12.288-12.288-22.016-26.624-29.184-43.008s-10.752-34.304-10.752-53.248c0-18.432 3.584-35.84 10.752-52.736 7.168-16.384 16.896-30.72 29.184-43.008 12.288-12.288 26.624-22.016 43.008-29.184 16.896-7.168 34.304-10.752 52.736-10.752z m27.648 136.192l40.96-40.96c3.584-3.584 5.632-8.192 5.632-13.824 0-5.12-2.048-9.728-5.632-13.824-3.584-3.584-8.192-5.632-13.824-5.632-5.12 0-9.728 2.048-13.824 5.632l-40.96 40.96-41.472-40.96c-3.584-3.584-8.192-5.632-13.824-5.632-5.12 0-9.728 2.048-13.824 5.632-3.584 3.584-5.632 8.192-5.632 13.824 0 5.12 2.048 9.728 5.632 13.824l40.96 40.96-40.96 41.472c-3.584 3.584-5.632 8.192-5.632 13.824 0 5.12 2.048 9.728 5.632 13.824 3.584 3.584 8.192 5.632 13.824 5.632 5.12 0 9.728-2.048 13.824-5.632l41.472-40.96 40.96 40.96c3.584 3.584 8.192 5.632 13.824 5.632 5.12 0 9.728-2.048 13.824-5.632 3.584-3.584 5.632-8.192 5.632-13.824 0-5.12-2.048-9.728-5.632-13.824l-40.96-41.472z m-203.264-18.944c-0.512 3.072-0.512 6.144-0.512 8.704v9.216c0 18.432 2.56 36.352 8.192 52.736 5.12 16.896 12.8 32.256 23.04 46.08H343.552c-7.68 0-16.384-2.048-25.6-6.656s-17.92-10.752-26.112-17.92-14.848-15.872-19.968-25.088c-5.12-9.216-8.192-19.456-8.192-29.696V283.648c0-8.704 2.048-17.92 6.144-27.136s9.728-17.92 16.384-25.6c6.656-7.68 14.336-13.824 23.04-18.944 8.704-5.12 17.92-7.68 27.136-7.68h236.544V281.6c0 7.68 1.024 16.384 3.584 25.088 2.56 9.216 6.144 17.408 11.264 25.088s11.776 13.824 19.968 18.944 17.92 7.68 29.696 7.68h90.112v153.088c-3.584-0.512-7.168-0.512-11.264-1.024-3.584 0-7.168-0.512-10.752-0.512-30.72 0-59.392 7.168-84.992 21.504-25.6 14.336-46.592 33.792-61.952 57.856H379.904c-10.752 0-19.968 3.584-27.648 11.264-7.68 7.68-11.264 16.896-11.264 27.648 0 10.752 3.584 19.968 11.264 27.136 7.68 7.168 16.896 11.264 27.648 11.264H532.48v0.512zM379.904 435.712c-10.752 0-19.968 3.584-27.648 11.264s-11.264 16.384-11.264 27.136 3.584 19.968 11.264 27.648c7.68 7.68 16.896 11.264 27.648 11.264h231.424c10.752 0 19.968-3.584 27.648-11.264s11.264-16.896 11.264-27.648c0-10.752-3.584-19.968-11.264-27.136s-16.896-11.264-27.648-11.264H379.904z" fill="#FFFFFF" p-id="7088"></path></svg>