<?xml version="1.0" standalone="no"?><!DOCTYPE svg PUBLIC "-//W3C//DTD SVG 1.1//EN" "http://www.w3.org/Graphics/SVG/1.1/DTD/svg11.dtd"><svg t="1632380928418" class="icon" viewBox="0 0 1024 1024" version="1.1" xmlns="http://www.w3.org/2000/svg" p-id="9550" xmlns:xlink="http://www.w3.org/1999/xlink" width="200" height="200"><defs><style type="text/css"></style></defs><path d="M57.344 709.632h581.632c28.16 0 51.2-23.04 51.2-51.2V76.8c0-28.16-23.04-51.2-51.2-51.2H57.344c-28.16 0-51.2 23.04-51.2 51.2v581.632c0 28.16 23.04 51.2 51.2 51.2z" fill="#1DBDA1" p-id="9551"></path><path d="M756.736 1024h207.36c30.208 0 55.296-25.088 55.296-55.296v-388.096L838.144 399.36H450.048c-30.208 0-55.296 25.088-55.296 55.296v514.048c0 30.208 25.088 55.296 55.296 55.296h306.688z m68.608-592.384l162.304 162.304v1.024h-122.88c-22.016 0-39.424-17.92-39.424-39.424V431.616z m-399.36 537.088V454.656c0-12.288 11.264-24.064 24.064-24.064H793.6v124.928c0 38.4 31.232 70.656 70.656 70.656H988.16v342.528c0 13.312-11.264 24.064-24.064 24.064H450.048c-13.824 0-24.064-11.264-24.064-24.064z" fill="#1DBDA1" p-id="9552"></path><path d="M588.8 776.192h142.336c5.632 0 10.24-4.608 10.24-10.24s-4.608-10.24-10.24-10.24H588.8c-5.632 0-10.24 4.608-10.24 10.24s4.608 10.24 10.24 10.24z m0 75.264h239.616c5.632 0 10.24-4.608 10.24-10.24s-4.608-10.24-10.24-10.24H588.8c-5.632 0-10.24 4.608-10.24 10.24s4.608 10.24 10.24 10.24z m239.616 76.288c5.632 0 10.24-4.608 10.24-10.24s-4.608-10.24-10.24-10.24H588.8c-5.632 0-10.24 4.608-10.24 10.24s4.608 10.24 10.24 10.24h239.616zM742.4 53.76h57.344c20.48 0 36.864 8.192 51.2 23.04 14.336 14.336 19.456 34.304 19.456 55.296V250.88l-38.912-39.424c-4.096-4.096-9.728-5.12-14.848-3.072-7.168 3.072-10.752 11.264-7.68 18.432 0.512 1.536 1.536 3.072 3.072 4.608l61.952 62.464c5.12 5.632 14.336 5.632 19.456 0L957.44 229.376c5.632-5.632 5.12-14.336 0-19.968-1.536-1.536-3.584-3.072-6.144-3.584-4.608-1.536-9.728 0-13.312 3.584l-39.424 39.424V132.096c0-28.16-7.68-54.784-27.648-74.752-19.456-19.968-43.008-31.232-71.168-31.232H742.4c-5.12 0-9.728 2.56-11.776 7.168-2.56 4.096-2.56 9.728 0 13.824 2.048 4.096 6.656 6.656 11.776 6.656zM77.824 680.448h544.256c22.528 0 40.96-18.432 40.96-40.96V95.232c0-22.528-18.432-40.96-40.96-40.96H77.824c-22.528 0-40.96 18.432-40.96 40.96v544.256c0 22.528 18.432 40.96 40.96 40.96z" fill="#1DBDA1" p-id="9553"></path><path d="M148.992 329.216L117.76 198.144h27.136l19.968 90.112 24.064-90.112H220.16l23.04 91.648 19.968-91.648h26.624l-31.744 131.072h-28.16l-26.112-97.792-26.112 97.792h-28.672zM312.832 329.216V198.144h97.28V220.16H339.456v29.184h66.048V271.36H339.456v35.84h73.216v22.016H312.832zM450.56 198.144h52.224c10.24 0 17.92 0.512 23.04 1.536 5.12 1.024 9.728 2.56 13.824 5.632 4.096 2.56 7.168 6.144 10.24 10.752 2.56 4.608 4.096 9.728 4.096 15.36 0 6.144-1.536 11.776-5.12 16.896-3.072 5.12-7.68 9.216-13.312 11.776 8.192 2.56 14.336 6.144 18.432 11.776 4.096 5.632 6.656 12.288 6.656 19.968 0 6.144-1.536 11.776-4.096 17.408s-6.656 10.24-11.264 13.312c-4.608 3.584-10.752 5.632-17.92 6.144-4.608 0.512-14.848 1.024-31.744 1.024H450.56V198.144z m26.624 22.016v30.208h17.408c10.24 0 16.896 0 19.456-0.512 4.608-0.512 8.192-2.048 10.752-4.608s4.096-6.144 4.096-10.24-1.024-7.168-3.584-9.728c-2.048-2.56-5.632-4.096-9.728-4.608-2.56-0.512-10.24-0.512-22.528-0.512h-15.872z m0 51.712V307.2H501.76c9.728 0 15.36-0.512 17.92-1.024 4.096-0.512 7.168-2.56 9.728-5.12s3.584-6.656 3.584-11.264c0-4.096-1.024-7.168-3.072-10.24-2.048-2.56-4.608-4.608-8.192-6.144-3.584-1.024-11.264-2.048-23.552-2.048h-20.992zM123.904 504.32v-117.76h37.888c14.336 0 24.064 0.512 28.16 1.536 6.656 1.536 12.288 5.632 16.896 11.776 4.608 6.144 6.656 13.312 6.656 23.04 0 7.168-1.536 13.312-4.096 18.432s-6.144 8.704-10.24 11.776c-4.096 2.56-8.192 4.608-12.288 5.632-5.632 1.024-13.824 1.536-24.576 1.536h-15.36v44.544h-23.04z m23.552-97.792V440.32h12.8c9.216 0 15.872-0.512 18.944-2.048 3.072-1.024 5.632-3.072 7.68-5.632 2.048-2.56 2.56-5.632 2.56-9.216 0-4.096-1.024-7.68-3.584-10.752-2.56-2.56-5.632-4.608-9.728-5.12-3.072-0.512-8.704-1.024-16.896-1.024h-11.776zM327.68 504.32h-25.6l-10.24-26.624h-47.104l-9.728 26.624H209.92l46.08-117.76h25.088l46.592 117.76z m-44.032-46.592l-16.384-43.52-15.872 43.52h32.256zM394.752 461.312v-19.968h51.2v47.104c-5.12 4.608-12.288 9.216-21.504 12.8S405.504 506.88 395.776 506.88c-12.288 0-23.04-2.56-32.256-7.68-9.216-5.12-15.872-12.8-20.48-22.016-4.608-9.728-6.656-19.968-6.656-31.232 0-12.288 2.56-23.04 7.68-32.768 5.12-9.728 12.8-16.896 22.528-22.016 7.68-4.096 16.896-5.632 28.16-5.632 14.848 0 26.112 3.072 34.304 9.216 8.192 6.144 13.312 14.848 15.872 25.6l-23.552 4.608c-1.536-5.632-4.608-10.24-9.216-13.824-4.608-3.584-10.24-5.12-16.896-5.12-10.24 0-18.432 3.072-24.576 9.728-6.144 6.656-9.216 16.384-9.216 29.184 0 13.824 3.072 24.576 9.216 31.232 6.144 7.168 14.336 10.24 24.576 10.24 5.12 0 9.728-1.024 14.848-3.072 5.12-2.048 9.216-4.096 12.8-7.168v-14.848h-28.16zM467.968 504.32v-117.76h87.04v19.968H491.52v26.112h58.88v19.968H491.52v32.256h65.536v19.968H467.968z" fill="#FFFFFF" p-id="9554"></path></svg>