<?xml version="1.0" standalone="no"?><!DOCTYPE svg PUBLIC "-//W3C//DTD SVG 1.1//EN" "http://www.w3.org/Graphics/SVG/1.1/DTD/svg11.dtd"><svg t="1636363341917" class="icon" viewBox="0 0 1024 1024" version="1.1" xmlns="http://www.w3.org/2000/svg" p-id="8062" xmlns:xlink="http://www.w3.org/1999/xlink" width="32" height="32"><defs><style type="text/css"></style></defs><path d="M578.048 649.216H356.864v315.392c0 29.696 24.576 54.272 54.272 54.272h558.08c29.696 0 54.272-24.576 54.272-54.272v-558.08c0-29.696-24.576-54.272-54.272-54.272h-332.8v238.592c0.512 31.744-26.112 58.368-58.368 58.368z" fill="#5EA162" p-id="8063"></path><path d="M589.312 652.288H387.072v288.768c0 27.648 22.528 49.664 49.664 49.664H947.2c27.648 0 49.664-22.528 49.664-49.664V430.08c0-27.648-22.528-49.664-49.664-49.664h-305.152v218.112c0.512 29.184-23.552 53.76-52.736 53.76z" fill="#5EA162" p-id="8064"></path><path d="M50.688 671.232h567.296c27.648 0 49.664-22.528 49.664-49.664V54.272c0-27.648-22.528-49.664-49.664-49.664H50.688C23.04 4.608 1.024 27.136 1.024 54.272v567.296c0 27.136 22.528 49.664 49.664 49.664z" fill="#FF7651" p-id="8065"></path><path d="M70.656 643.072h530.432c22.016 0 39.936-17.92 39.936-39.936V72.192c0-22.016-17.92-39.936-39.936-39.936H70.656C49.152 32.256 30.72 50.176 30.72 72.192v530.432c0 22.016 18.432 40.448 39.936 40.448z" fill="#FF7651" p-id="8066"></path><path d="M588.8 740.352h154.624c6.144 0 11.264-5.12 11.264-11.264s-5.12-11.264-11.264-11.264H588.8c-6.144 0-11.264 5.12-11.264 11.264s5.12 11.264 11.264 11.264z m0 81.92h260.608c6.144 0 11.264-5.12 11.264-11.264s-5.12-11.264-11.264-11.264H588.8c-6.144 0-11.264 5.12-11.264 11.264s5.12 11.264 11.264 11.264z m260.608 82.944c6.144 0 11.264-5.12 11.264-11.264s-5.12-11.264-11.264-11.264H588.8c-6.144 0-11.264 5.12-11.264 11.264s5.12 11.264 11.264 11.264h260.608zM184.32 312.832h184.32c7.168 0 13.312-6.144 13.312-13.312 0-7.168-5.632-12.8-13.312-12.8H184.32c-7.168 0-13.312 6.144-13.312 13.312 0 7.168 6.144 12.8 13.312 12.8z m0 97.792h310.272c7.168 0 13.312-6.144 13.312-13.312S501.76 384 494.592 384H184.32c-7.168 0-13.312 6.144-13.312 13.312 0 7.168 6.144 13.312 13.312 13.312z m310.272 98.816c7.168 0 13.312-6.144 13.312-13.312 0-7.168-6.144-13.312-13.312-13.312H184.32c-7.168 0-13.312 6.144-13.312 13.312 0 7.168 6.144 13.312 13.312 13.312h310.272z" fill="#FFFFFF" p-id="8067"></path><path d="M963.072 73.728v-1.024c0-10.24-8.192-18.944-18.944-18.944l-123.904-9.216c-10.24 0-18.944 9.216-18.944 18.944s9.216 18.944 18.944 18.944l81.92 6.144-121.856 123.904c-7.168 8.192-7.168 19.968 1.024 28.16 8.192 7.168 18.944 7.168 27.136 0l120.32-120.32 6.144 79.872c0 11.264 9.216 19.968 19.968 19.968 11.264 0 19.968-9.216 19.968-19.968l-11.776-126.464z" fill="#FF7651" p-id="8068"></path><path d="M62.464 947.712c2.048 9.216 9.216 16.384 17.92 16.384l122.88 10.24c10.24 0 18.944-9.216 18.944-18.944 0-10.24-8.192-18.944-18.944-18.944l-87.552-7.168 126.976-131.072c8.192-8.192 8.192-20.992 0-29.184-7.168-8.192-19.968-8.192-27.136-1.024l-1.024 1.024L95.232 890.88l-6.144-81.92c0-11.264-9.216-19.968-19.968-19.968s-19.968 9.216-19.968 19.968l9.216 129.024c1.024 4.096 2.048 6.656 4.096 9.728z" fill="#5EA162" p-id="8069"></path></svg>