<?xml version="1.0" standalone="no"?><!DOCTYPE svg PUBLIC "-//W3C//DTD SVG 1.1//EN" "http://www.w3.org/Graphics/SVG/1.1/DTD/svg11.dtd"><svg t="1632380328013" class="icon" viewBox="0 0 1024 1024" version="1.1" xmlns="http://www.w3.org/2000/svg" p-id="7515" xmlns:xlink="http://www.w3.org/1999/xlink" width="200" height="200"><defs><style type="text/css"></style></defs><path d="M878.08 0h-732.16C65.536 0 0 65.536 0 145.92v732.16C0 958.464 65.536 1024 145.92 1024h732.16c80.384 0 145.92-65.536 145.92-145.92v-732.16C1024 65.536 958.464 0 878.08 0z" fill="#0099C9" p-id="7516"></path><path d="M850.944 381.952c-1.024-54.272-15.36-97.28-44.032-128.512-28.672-31.232-67.584-47.616-117.248-48.64-49.664 1.024-88.576 16.896-117.248 48.64-28.672 31.232-43.008 74.24-44.032 128.512v25.088h68.608v-25.088c-1.024-18.944 3.584-41.472 14.848-67.584s36.864-39.936 77.312-42.496c38.912 2.56 64 15.872 76.288 39.936 12.288 24.064 17.408 47.616 16.384 70.144v25.088h68.608l0.512-25.088z m-265.728 122.88v205.312h-307.2V504.832h307.2m7.68-76.288h-322.56c-19.456 0.512-35.84 7.168-48.64 19.968s-19.456 28.672-19.968 47.104v224.256c0.512 18.944 7.168 34.304 19.968 47.104 12.8 12.8 29.184 19.456 48.64 19.968h322.56c19.456-0.512 35.84-7.168 48.64-19.968s19.456-28.672 19.968-47.104V495.616c-0.512-18.944-7.168-34.304-19.968-47.104-12.8-12.8-29.184-19.456-48.64-19.968z" fill="#FFFFFF" p-id="7517"></path><path d="M431.616 541.184c13.312 0 24.064 4.096 32.768 12.288 8.704 8.192 12.8 18.432 13.312 30.72 0 8.704-2.048 16.896-6.144 23.04-4.096 6.656-9.728 11.776-16.896 15.36v51.2c0 6.656-2.048 12.288-6.656 16.384-4.608 4.096-9.728 6.144-16.384 6.144s-11.776-2.048-16.384-6.144c-4.608-4.096-6.656-9.216-6.656-16.384v-51.2c-7.168-3.584-12.8-9.216-16.896-15.36-4.096-6.656-6.144-14.336-6.144-23.04 0.512-12.288 5.12-22.528 13.312-30.72 8.704-8.192 19.456-12.288 32.768-12.288m0-50.688c-26.624 0-50.176 9.216-68.096 27.136-17.92 17.408-27.648 39.936-28.672 65.536v2.048c0 18.432 4.608 35.328 13.824 49.664 2.56 4.608 6.144 8.704 9.216 12.8v27.136c0 20.992 8.192 40.448 23.552 54.272 13.824 12.8 31.232 19.456 50.688 19.456 18.944 0 36.352-6.656 50.688-19.456 15.36-13.824 23.552-32.768 23.552-54.272v-27.136c3.584-4.096 6.656-8.192 9.216-12.8 9.216-14.848 13.312-31.232 13.312-49.664v-2.56c-1.024-25.6-10.752-48.128-28.672-65.536-18.432-17.408-41.984-26.624-68.608-26.624z" fill="#FFFFFF" p-id="7518"></path><path d="M251.904 474.624h127.488v244.736H251.904V474.624z m226.816 10.24h130.048v241.152H478.72V484.864z" fill="#FFFFFF" p-id="7519"></path></svg>