<?xml version="1.0" standalone="no"?><!DOCTYPE svg PUBLIC "-//W3C//DTD SVG 1.1//EN" "http://www.w3.org/Graphics/SVG/1.1/DTD/svg11.dtd"><svg t="1632380263918" class="icon" viewBox="0 0 1024 1024" version="1.1" xmlns="http://www.w3.org/2000/svg" p-id="7229" xmlns:xlink="http://www.w3.org/1999/xlink" width="200" height="200"><defs><style type="text/css"></style></defs><path d="M878.08 0h-732.16C65.536 0 0 65.536 0 145.92v732.16C0 958.464 65.536 1024 145.92 1024h732.16c80.384 0 145.92-65.536 145.92-145.92v-732.16C1024 65.536 958.464 0 878.08 0z" fill="#F24A46" p-id="7230"></path><path d="M267.264 731.648h496.64v51.2h-496.64v-51.2z m495.616-72.704s1.536-31.744-35.84-35.328H299.008s-29.696 3.584-32.256 36.864v51.712H762.88v-53.248zM409.6 475.136l2.56 2.048c5.12 5.12 14.336 17.408 3.072 30.208-10.752 11.776-17.408 18.432-20.992 23.552-7.168 6.656-11.264 15.872-11.264 25.088v4.608c0 18.944 15.36 34.304 34.304 34.304h195.584c18.944 0 34.304-15.36 34.304-34.304v-4.608c0-7.168-2.048-13.824-6.144-19.456-5.632-8.192-12.288-15.872-20.48-22.528-14.336-12.8-13.824-23.552-5.12-33.792 2.048-2.048 3.584-4.608 5.12-7.168 60.928-58.88 62.464-155.648 3.584-216.576-58.88-60.928-155.648-62.464-216.576-3.584-29.696 28.672-46.592 68.608-46.592 110.08 0 42.496 17.92 82.944 48.64 112.128z" fill="#FFFFFF" p-id="7231"></path></svg>