<?xml version="1.0" standalone="no"?><!DOCTYPE svg PUBLIC "-//W3C//DTD SVG 1.1//EN" "http://www.w3.org/Graphics/SVG/1.1/DTD/svg11.dtd"><svg t="1632381010499" class="icon" viewBox="0 0 1024 1024" version="1.1" xmlns="http://www.w3.org/2000/svg" p-id="9839" xmlns:xlink="http://www.w3.org/1999/xlink" width="200" height="200"><defs><style type="text/css"></style></defs><path d="M896 1024H128c-70.656 0-128-57.856-128-128V128C0 57.856 57.856 0 128 0h768c70.656 0 128 57.856 128 128v768c0 70.656-57.344 128-128 128z" fill="#567EB1" p-id="9840"></path><path d="M705.024 323.072h92.672L658.944 184.32v92.672c0 36.864 9.216 46.08 46.08 46.08z" fill="#FFFFFF" p-id="9841"></path><path d="M507.904 755.712s73.728-110.592 184.32-110.592c40.448 0 76.288 14.848 104.96 33.792V369.152h-154.112c-11.264 0-30.72-9.216-30.72-30.72V184.32H304.128c-33.792 0-61.44 27.648-61.44 61.44v524.288c0 33.792 27.648 61.44 61.44 61.44h281.6c-48.64-32.256-77.824-75.776-77.824-75.776z" fill="#FFFFFF" p-id="9842"></path><path d="M691.712 658.944c-96.768 0-161.792 96.768-161.792 96.768s65.024 96.768 161.792 96.768c96.768 0 161.792-96.768 161.792-96.768s-65.024-96.768-161.792-96.768z m0 160.768c-35.84 0-64-29.184-64-64s29.184-64 64-64c35.328 0 64 29.184 64 64 0 35.328-28.16 64-64 64z m-32.256-64c0 17.92 14.336 32.256 32.256 32.256s32.256-14.336 32.256-32.256-14.336-32.256-32.256-32.256c-8.704 0-16.896 3.584-23.04 9.216-6.144 6.144-9.216 14.336-9.216 23.04z" fill="#FFFFFF" p-id="9843"></path><path d="M478.208 447.488L450.56 550.4h-24.576l-17.408-67.072c-1.024-3.584-1.536-7.68-1.536-11.264h-0.512c-0.512 4.608-1.024 8.192-2.048 11.264l-17.92 67.072h-25.6l-27.648-102.912H358.4l15.36 70.144c0.512 3.072 1.024 7.168 1.536 11.776h0.512c0-3.584 1.024-7.68 2.048-11.776l18.944-69.632H419.84l17.408 70.656c0.512 2.56 1.024 6.656 1.536 10.752h0.512c0-4.096 0.512-7.68 1.536-11.264L455.68 447.488h22.528zM481.28 514.048c0-12.288 3.584-21.504 10.752-28.672 7.168-7.168 16.896-10.24 29.184-10.24 11.776 0 21.504 3.584 28.16 10.24 7.168 6.656 10.24 15.872 10.24 27.648 0 12.288-3.584 21.504-10.752 28.672-7.168 7.168-16.896 10.752-29.184 10.752-11.776 0-21.504-3.584-28.672-10.24s-9.728-16.384-9.728-28.16z m21.504-0.512c0 14.848 6.144 22.016 17.92 22.016 11.264 0 17.408-7.68 17.408-22.528 0-14.336-5.632-21.504-17.408-21.504-5.632 0-10.24 2.048-13.312 5.632-3.072 4.096-4.608 9.728-4.608 16.384zM622.08 496.128c-2.56-1.536-5.632-2.048-9.728-2.048-5.12 0-8.704 2.048-11.776 5.632-3.072 3.584-4.096 8.704-4.096 15.36v35.328h-21.504V476.672h21.504v13.824h0.512c3.584-10.24 10.24-15.36 19.456-15.36 2.56 0 4.608 0.512 5.632 1.024v19.968zM703.488 550.4h-21.504v-10.24h-0.512c-5.12 8.192-12.8 12.288-23.04 12.288-9.216 0-16.896-3.072-22.528-9.728-5.632-6.656-8.192-15.872-8.192-27.136 0-12.288 3.072-22.016 9.216-29.184 6.144-7.168 14.336-11.264 24.064-11.264 9.728 0 16.384 3.584 19.968 10.24h0.512v-44.032h21.504v109.056z m-21.504-41.472c0-5.12-1.536-9.216-4.608-12.288-3.072-3.072-6.656-5.12-11.264-5.12-5.12 0-9.216 2.048-12.288 6.144-3.072 4.096-4.608 9.728-4.608 16.896 0 6.656 1.536 11.776 4.096 15.36 3.072 3.584 6.656 5.632 11.776 5.632 4.608 0 8.704-2.048 11.776-5.632 3.072-4.096 4.608-8.704 4.608-14.848v-6.144z" fill="#567EB1" p-id="9844"></path></svg>